# xmcd
#
# Track frame offsets:
#	150
#	14274
#	36335
#	54472
#	72297
#	87979
#	109974
#	125394
#	141326
#	153949
#	173437
#
# Disc length: 2869 seconds
#
# Revision: 0
# Processed by: cddbd v1.5.1PL0 Copyright (c) Steve Scherf et al.
# Submitted via: dBpowerAMP V4.0
#
DISCID=8f0b330b
DTITLE=Blues Shoes - My Child
DYEAR=2004
DGENRE=blues
TTITLE0=Please Blues
TTITLE1=I'm Crazy
TTITLE2=Cobby
TTITLE3=Out in the Cold
TTITLE4=Tonight
TTITLE5=Queen Sabbah
TTITLE6=Rescue Me
TTITLE7=Mister Kethner
TTITLE8=Dreaming of You
TTITLE9=My Child
TTITLE10=Chap
EXTD=
EXTT0=
EXTT1=
EXTT2=
EXTT3=
EXTT4=
EXTT5=
EXTT6=
EXTT7=
EXTT8=
EXTT9=
EXTT10=
PLAYORDER=
